<svg xmlns="http://www.w3.org/2000/svg" viewBox="0 0 120 120"><rect width="120" height="120" fill="#F5EBDD"/><path d="M14 120c0-24 20-36 46-36s46 12 46 36z" fill="#2362FE"/><path d="M48 84c3 7 8 10 12 10s9-3 12-10" fill="none" stroke="#1B4CC6" stroke-width="3" stroke-linecap="round"/><path d="M51 70h18v14a9 9 0 0 1-18 0z" fill="#D4B59E"/><circle cx="36.5" cy="57" r="5.5" fill="#F6D2B8"/><circle cx="83.5" cy="57" r="5.5" fill="#F6D2B8"/><ellipse cx="60" cy="54" rx="24" ry="26" fill="#F6D2B8"/><circle cx="51" cy="56" r="3.2" fill="#1B1F2A"/><circle cx="69" cy="56" r="3.2" fill="#1B1F2A"/><path d="M52 66q8 7 16 0" fill="none" stroke="#1B1F2A" stroke-width="3" stroke-linecap="round"/><circle cx="45" cy="64" r="3.6" fill="#FF7B6B" opacity=".3"/><circle cx="75" cy="64" r="3.6" fill="#FF7B6B" opacity=".3"/><path d="M34 62c-6-26 8-40 26-40 19 0 31 14 26 40-2-10-6-17-11-20-9 3-24 3-34-3-3 5-6 13-7 23z" fill="#E2B54F"/><path d="M40 51h17v5a7 7 0 0 1-7 7h-3a7 7 0 0 1-7-7zM63 51h17v5a7 7 0 0 1-7 7h-3a7 7 0 0 1-7-7z" fill="#1B1F2A"/><path d="M57 53h6" stroke="#1B1F2A" stroke-width="2.8"/></svg>
